<svg width="60" height="60" viewBox="0 0 60 60" fill="none" xmlns="http://www.w3.org/2000/svg">
<path d="M25.7837 47.7123C26.1873 48.2607 26.808 48.606 27.487 48.6597C27.5477 48.6643 27.6083 48.6667 27.6667 48.6667C28.2827 48.6667 28.8777 48.424 29.3163 47.983L42.733 34.5663C43.6453 33.654 43.6453 32.1793 42.733 31.267C41.8207 30.3547 40.346 30.3547 39.4337 31.267L27.9397 42.761L23.1307 36.2043C22.3677 35.166 20.907 34.9397 19.8687 35.7027C18.8303 36.4657 18.604 37.9263 19.367 38.9647L25.7837 47.7123Z" fill="#456CF4"/>
<path d="M51 9H48.6667V4.33333C48.6667 3.04533 47.6213 2 46.3333 2H44C42.712 2 41.6667 3.04533 41.6667 4.33333V9H18.3333V4.33333C18.3333 3.04533 17.288 2 16 2H13.6667C12.3787 2 11.3333 3.04533 11.3333 4.33333V9H9C5.14067 9 2 12.1407 2 16V51C2 54.8593 5.14067 58 9 58H51C54.8593 58 58 54.8593 58 51V16C58 12.1407 54.8593 9 51 9ZM53.3333 51C53.3333 52.2857 52.2857 53.3333 51 53.3333H9C7.71433 53.3333 6.66667 52.2857 6.66667 51V25.4267H53.3333V51Z" fill="#456CF4"/>
</svg>
