<svg width="60" height="60" viewBox="0 0 60 60" fill="none" xmlns="http://www.w3.org/2000/svg">
<path d="M47.5743 12.4257C47.5266 12.3782 47.4909 12.3895 47.4624 12.3993L17.2693 22.4637C17.2366 22.4747 17.2028 22.4858 17.1952 22.5555C17.1875 22.6252 17.218 22.6436 17.2477 22.6613L26.3594 28.1283C26.7926 28.3881 27.0819 28.8332 27.1436 29.3346C27.2053 29.8361 27.0326 30.338 26.6753 30.6951L12.9355 44.4349C12.2106 45.1598 12.2106 46.3394 12.9355 47.0645C13.2869 47.4158 13.7537 47.6093 14.2501 47.6094C14.2501 47.6094 14.2503 47.6094 14.2505 47.6094C14.7468 47.6094 15.2136 47.4158 15.5651 47.0645L29.3048 33.3248C29.662 32.9675 30.1645 32.7952 30.6653 32.8566C31.1667 32.9182 31.6118 33.2076 31.8717 33.6408L37.3387 42.7525C37.3565 42.7821 37.3752 42.8129 37.4445 42.8049C37.5142 42.7973 37.5254 42.7635 37.5364 42.7308L47.6007 12.5376C47.6102 12.509 47.6221 12.4735 47.5743 12.4257Z" fill="#456CF4"/>
<path d="M49.25 2H10.75C3 2 2 3 2 10.75V49.25C2 57 3 58 10.75 58H49.25C57 58 58 57 58 49.25V10.75C58 3 57 2 49.25 2ZM50.7135 13.5752L40.6492 43.7683C40.2254 45.0397 39.1346 45.9203 37.8026 46.0665C36.4701 46.212 35.2146 45.5898 34.5252 44.4407L30.1392 37.1308L17.8853 49.3845C16.9142 50.3558 15.6232 50.8906 14.2505 50.8906C12.8779 50.8904 11.5863 50.3556 10.6154 49.3845C8.61106 47.3802 8.61106 44.1189 10.6154 42.1146L22.8693 29.8608L15.5594 25.4747C14.4102 24.7852 13.7872 23.5294 13.9335 22.1972C14.0797 20.8651 14.9604 19.7744 16.2317 19.3507L46.4246 9.28623C47.6508 8.87772 48.9805 9.19141 49.8944 10.1055C50.8086 11.0196 51.1224 12.3491 50.7135 13.5752Z" fill="#456CF4"/>
</svg>
