<svg width="60" height="60" viewBox="0 0 60 60" fill="none" xmlns="http://www.w3.org/2000/svg">
<rect x="2" y="2" width="56" height="56" rx="5" fill="#456CF4"/>
<path d="M16 15.7779C16 13.4325 17.2981 12.2597 19.8944 12.2597C22.4907 12.2597 23.7889 13.4325 23.7889 15.7779C23.7889 16.8956 23.4604 17.7692 22.8035 18.3989C22.1623 19.0128 21.1926 19.3197 19.8944 19.3197C17.2981 19.3197 16 18.1391 16 15.7779ZM23.4604 49H16.305V22.6018H23.4604V49Z" fill="#F5F5F6"/>
<path d="M45.4897 28.0089H39.2962V49H32.1408V28.0089H28.1994V24.538L32.1408 22.6018V20.6656C32.1408 17.659 32.8759 15.4631 34.346 14.0779C35.8162 12.6926 38.1701 12 41.4076 12C43.8788 12 46.0762 12.3699 48 13.1098L46.1701 18.3989C44.7312 17.9424 43.4018 17.7141 42.1818 17.7141C41.1652 17.7141 40.4301 18.0211 39.9765 18.635C39.523 19.2331 39.2962 20.0045 39.2962 20.9489V22.6018H45.4897V28.0089Z" fill="#F5F5F6"/>
</svg>
