<svg width="60" height="60" viewBox="0 0 60 60" fill="none" xmlns="http://www.w3.org/2000/svg">
<path d="M27.3555 3.80645C27.3555 3.27272 27.119 2.76634 26.7101 2.42331C26.3011 2.08028 25.7606 1.93422 25.235 2.02767C20.8003 2.8163 16.7246 4.64123 13.2662 7.24301C12.8483 7.55736 12.5874 8.03772 12.5509 8.55948C12.5144 9.08124 12.7066 9.59275 13.0765 9.96256L22.3912 19.2773C22.9607 19.8468 23.8395 19.9706 24.5434 19.5794C25.0641 19.2899 25.609 19.039 26.1744 18.8308C26.8842 18.5694 27.3555 17.8933 27.3555 17.1369V3.80645Z" fill="#456CF4"/>
<path d="M33.0537 17.1372C33.0537 17.8937 33.5257 18.5697 34.2359 18.8309C37.4436 20.0106 39.9899 22.5571 41.1696 25.7648C41.4308 26.4748 42.1072 26.9464 42.8637 26.9464H56.1955C56.7298 26.9464 57.2364 26.7097 57.5792 26.3C57.922 25.8903 58.0654 25.3499 57.9718 24.824C55.9104 13.232 46.7681 4.08971 35.1761 2.02811C34.6505 1.93466 34.1107 2.07883 33.7014 2.42148C33.2921 2.76413 33.0537 3.27069 33.0537 3.80461V17.1372Z" fill="#456CF4"/>
<path d="M42.8631 32.6446C42.1065 32.6446 41.4304 33.1166 41.1694 33.8268C39.5277 38.2913 35.2387 41.4762 30.2046 41.4762C23.7535 41.4762 18.5239 36.2466 18.5239 29.7955C18.5239 28.3552 18.7855 26.9764 19.2626 25.7027C19.5108 25.0402 19.3486 24.293 18.8483 23.7927L9.28359 14.2279C8.89801 13.8423 8.35877 13.652 7.8165 13.7096C7.27422 13.7671 6.7857 14.0663 6.48996 14.5244C3.64943 18.9257 2 24.1676 2 29.7955C2 45.3724 14.6277 58.0001 30.2046 58.0001C44.0851 58.0001 55.6234 47.973 57.9719 34.7671C58.0654 34.2416 57.9212 33.7018 57.5786 33.2925C57.2359 32.8831 56.7294 32.6448 56.1954 32.6448H42.8631V32.6446Z" fill="#456CF4"/>
</svg>
