<svg width="60" height="60" viewBox="0 0 60 60" fill="none" xmlns="http://www.w3.org/2000/svg">
<path d="M58.125 9.37631H33.75V3.75131C33.75 3.19256 33.5025 2.66381 33.0713 2.30756C32.6437 1.95131 32.07 1.79756 31.53 1.91006L1.53 7.53506C0.64125 7.70006 0 8.47256 0 9.37631V50.6263C0 51.5263 0.64125 52.3026 1.53 52.4676L31.53 58.0926C31.6425 58.1151 31.7588 58.1263 31.875 58.1263C32.31 58.1263 32.7337 57.9763 33.0713 57.6951C33.5025 57.3388 33.75 56.8063 33.75 56.2513V50.6263H58.125C59.16 50.6263 60 49.7863 60 48.7513V11.2513C60 10.2163 59.16 9.37631 58.125 9.37631ZM25.785 36.2676C26.4675 37.0438 26.3888 38.2288 25.6087 38.9113C25.2525 39.2226 24.8137 39.3763 24.375 39.3763C23.8538 39.3763 23.3363 39.1588 22.965 38.7351L17.5125 32.5063L12.7312 38.6563C12.36 39.1288 11.805 39.3763 11.25 39.3763C10.8488 39.3763 10.4438 39.2488 10.0988 38.9826C9.28125 38.3451 9.135 37.1676 9.76875 36.3501L14.9963 29.6301L9.84 23.7351C9.1575 22.9588 9.23625 21.7738 10.0162 21.0913C10.7925 20.4088 11.9738 20.4838 12.6638 21.2676L17.3438 26.6151L22.8975 19.4751C23.535 18.6613 24.7125 18.5113 25.53 19.1488C26.3475 19.7826 26.4937 20.9601 25.8563 21.7813L19.8563 29.4913L25.785 36.2676ZM56.25 46.8763H33.75V43.1263H39.375C40.41 43.1263 41.25 42.2863 41.25 41.2513C41.25 40.2163 40.41 39.3763 39.375 39.3763H33.75V35.6263H39.375C40.41 35.6263 41.25 34.7863 41.25 33.7513C41.25 32.7163 40.41 31.8763 39.375 31.8763H33.75V28.1263H39.375C40.41 28.1263 41.25 27.2863 41.25 26.2513C41.25 25.2163 40.41 24.3763 39.375 24.3763H33.75V20.6263H39.375C40.41 20.6263 41.25 19.7863 41.25 18.7513C41.25 17.7163 40.41 16.8763 39.375 16.8763H33.75V13.1263H56.25V46.8763Z" fill="#456CF4"/>
<path d="M50.625 16.8763H46.875C45.84 16.8763 45 17.7163 45 18.7513C45 19.7863 45.84 20.6263 46.875 20.6263H50.625C51.66 20.6263 52.5 19.7863 52.5 18.7513C52.5 17.7163 51.66 16.8763 50.625 16.8763Z" fill="#456CF4"/>
<path d="M50.625 24.3763H46.875C45.84 24.3763 45 25.2163 45 26.2513C45 27.2863 45.84 28.1263 46.875 28.1263H50.625C51.66 28.1263 52.5 27.2863 52.5 26.2513C52.5 25.2163 51.66 24.3763 50.625 24.3763Z" fill="#456CF4"/>
<path d="M50.625 31.8763H46.875C45.84 31.8763 45 32.7163 45 33.7513C45 34.7863 45.84 35.6263 46.875 35.6263H50.625C51.66 35.6263 52.5 34.7863 52.5 33.7513C52.5 32.7163 51.66 31.8763 50.625 31.8763Z" fill="#456CF4"/>
<path d="M50.625 39.3763H46.875C45.84 39.3763 45 40.2163 45 41.2513C45 42.2863 45.84 43.1263 46.875 43.1263H50.625C51.66 43.1263 52.5 42.2863 52.5 41.2513C52.5 40.2163 51.66 39.3763 50.625 39.3763Z" fill="#456CF4"/>
</svg>
