<svg width="60" height="60" viewBox="0 0 60 60" fill="none" xmlns="http://www.w3.org/2000/svg">
<path d="M53.5 2H6.5C4 2 2 4 2 6.49995V47.9419C2 57 3 58 12.058 58H47.942C57 58 58 57 58 47.942V6.49989C58 4 56 2 53.5 2ZM49.3255 45.702H31.378C29.8006 50.3712 23.1742 50.3783 21.5945 45.702H10.6745C8.49556 45.702 8.49502 42.4078 10.6745 42.4078H21.5945C23.1718 37.7386 29.7983 37.7315 31.378 42.4078H49.3255C51.5044 42.4078 51.5051 45.702 49.3255 45.702ZM49.3255 31.6471H45.4329C43.8555 36.3163 37.2291 36.3234 35.6493 31.6471H10.6745C8.49556 31.6471 8.49502 28.3529 10.6745 28.3529H35.6494C37.2267 23.6837 43.8532 23.6766 45.433 28.3529H49.3256C51.5044 28.3529 51.5051 31.6471 49.3255 31.6471ZM49.3255 17.5922H24.3506C22.7731 22.2614 16.1468 22.2685 14.5671 17.5922H10.6745C8.49556 17.5922 8.49502 14.298 10.6745 14.298H14.5671C16.1444 9.62879 22.7709 9.62168 24.3506 14.298H49.3255C51.5044 14.298 51.5051 17.5922 49.3255 17.5922Z" fill="#456CF4"/>
<path d="M26.4863 42.1882C24.0165 42.1882 24.0178 45.9215 26.4863 45.9215C28.956 45.9216 28.9547 42.1882 26.4863 42.1882Z" fill="#456CF4"/>
<path d="M19.4588 14.0784C16.9891 14.0784 16.9904 17.8117 19.4588 17.8117C21.9285 17.8118 21.9272 14.0784 19.4588 14.0784Z" fill="#456CF4"/>
<path d="M40.5411 28.1331C38.0713 28.1331 38.0726 31.8664 40.5411 31.8664C43.0109 31.8665 43.0096 28.1331 40.5411 28.1331Z" fill="#456CF4"/>
</svg>
