<svg width="60" height="60" viewBox="0 0 60 60" fill="none" xmlns="http://www.w3.org/2000/svg">
<path d="M53.5 2H6.5C4 2 2 4 2 6.5V53.5C2 56 4 58 6 58H53.5C56 58 58 56 58.0001 53.5V6.5C58.0001 4 56 2 53.5 2ZM19.9793 18.0971C18.5389 18.0971 17.367 19.2689 17.367 20.7094V30.9375H18.859C19.8388 30.9375 20.6329 31.7317 20.6329 32.7113C20.6329 33.6909 19.8388 34.4852 18.859 34.4852H17.367V39.2906C17.367 42.6873 14.6036 45.4506 11.207 45.4506H10.6222C9.64249 45.4506 8.84836 44.6564 8.84836 43.6768C8.84836 42.6972 9.64249 41.9029 10.6222 41.9029H11.207C12.6475 41.9029 13.8193 40.7311 13.8193 39.2906V34.4852H12.0264C11.0467 34.4852 10.2526 33.6909 10.2526 32.7113C10.2526 31.7317 11.0467 30.9375 12.0264 30.9375H13.8192V20.7094C13.8192 17.3127 16.5827 14.5494 19.9792 14.5494C20.9589 14.5494 21.7531 15.3436 21.7531 16.3232C21.7531 17.3028 20.9591 18.0971 19.9793 18.0971ZM30.8491 41.777C26.3714 41.777 22.7285 38.1341 22.7285 33.6563V26.3437C22.7285 21.8659 26.3714 18.223 30.8491 18.223C31.8288 18.223 32.623 19.0173 32.623 19.9969C32.623 20.9765 31.8288 21.7707 30.8491 21.7707C28.3276 21.7707 26.2761 23.822 26.2761 26.3437V33.6563C26.2761 36.1779 28.3276 38.2293 30.8491 38.2293C31.8288 38.2293 32.623 39.0235 32.623 40.0031C32.623 40.9827 31.8288 41.777 30.8491 41.777ZM37.1896 35.2368C36.2122 36.1365 34.9088 36.6872 33.4788 36.6872H33.1005C32.1207 36.6872 31.3266 35.8929 31.3266 34.9133C31.3266 33.9337 32.1207 33.1395 33.1005 33.1395H33.4788C34.5469 33.1395 35.4159 32.2706 35.4159 31.2026V28.7977C35.4159 27.7297 34.5469 26.8607 33.4788 26.8607H33.1005C32.1207 26.8607 31.3266 26.0665 31.3266 25.0869C31.3266 24.1073 32.1207 23.3131 33.1005 23.3131H33.4788C34.9088 23.3131 36.2123 23.8637 37.1896 24.7634C38.167 23.8637 39.4704 23.3131 40.9004 23.3131H41.2789C42.2586 23.3131 43.0527 24.1073 43.0527 25.0869C43.0527 26.0665 42.2586 26.8607 41.2789 26.8607H40.9004C39.8323 26.8607 38.9634 27.7296 38.9634 28.7977V31.2026C38.9634 32.2705 39.8323 33.1395 40.9004 33.1395H41.2789C42.2586 33.1395 43.0527 33.9337 43.0527 34.9133C43.0527 35.8929 42.2586 36.6872 41.2789 36.6872H40.9004C39.4703 36.6871 38.167 36.1365 37.1896 35.2368ZM51.152 33.6564C51.152 38.1342 47.509 41.7771 43.0313 41.7771C42.0516 41.7771 41.2575 40.9829 41.2575 40.0033C41.2575 39.0236 42.0516 38.2294 43.0313 38.2294C45.5528 38.2294 47.6043 36.1781 47.6043 33.6564V26.3438C47.6043 23.8223 45.5528 21.7708 43.0313 21.7708C42.0516 21.7708 41.2575 20.9766 41.2575 19.997C41.2575 19.0174 42.0516 18.2231 43.0313 18.2231C47.509 18.2231 51.152 21.866 51.152 26.3438V33.6564Z" fill="#456CF4"/>
</svg>
