<svg width="60" height="60" viewBox="0 0 60 60" fill="none" xmlns="http://www.w3.org/2000/svg">
<path d="M19.1945 27.5441C19.1945 26.5485 18.387 25.7415 17.3914 25.7415H8.05161C7.05551 25.7415 6.24847 26.5485 6.24847 27.5441V52.7884H19.1945V27.5441Z" fill="#456CF4"/>
<path d="M53.9662 17.3524C53.9662 16.3564 53.1587 15.5493 52.1631 15.5493H42.8233C41.8277 15.5493 41.0202 16.3564 41.0202 17.3524V52.7884H53.9662V17.3524Z" fill="#456CF4"/>
<path d="M36.5803 30.8561C36.5803 29.8605 35.7733 29.053 34.7776 29.053H25.4374C24.4418 29.053 23.6348 29.8605 23.6348 30.8561V52.7885H36.5803V30.8561Z" fill="#456CF4"/>
<path d="M55.4828 56.3943H4.73282C3.73672 56.3943 2.92969 57.2013 2.92969 58.197C2.92969 59.1931 3.73672 60.0001 4.73282 60.0001H55.4828C56.4784 60.0001 57.2859 59.1931 57.2859 58.197C57.2859 57.2013 56.4784 56.3943 55.4828 56.3943Z" fill="#456CF4"/>
<path d="M15.5113 20.6561C15.5644 20.6561 15.6184 20.6538 15.672 20.6493C15.8349 20.6346 19.7241 20.2748 25.2452 18.3188C30.3145 16.5225 37.8012 12.9712 44.6823 6.25168C44.7166 6.21826 44.7477 6.18301 44.7789 6.14731V8.92181C44.7789 9.91791 45.5859 10.7249 46.5815 10.7249C47.5772 10.7249 48.3847 9.91791 48.3847 8.92181V1.80313C48.3847 0.807037 47.5772 0 46.5815 0H39.4624C38.4668 0 37.6597 0.807037 37.6597 1.80313C37.6597 2.79877 38.4668 3.6058 39.4624 3.6058H42.2383C42.2131 3.62778 42.187 3.64838 42.1628 3.67218C35.7902 9.89548 28.8551 13.201 24.1594 14.8778C19.0416 16.7056 15.3891 17.054 15.3529 17.0572C14.3623 17.146 13.6303 18.0203 13.7178 19.0114C13.8006 19.9498 14.5875 20.6561 15.5113 20.6561Z" fill="#456CF4"/>
</svg>
