<svg width="60" height="60" viewBox="0 0 60 60" fill="none" xmlns="http://www.w3.org/2000/svg">
<path d="M15.4156 14.7081L36.5955 8.92691L35.4739 6.65976C34.74 5.18612 32.9502 4.57757 31.4766 5.31141L12.5161 14.7081H15.4156Z" fill="#456CF4"/>
<path d="M43.1702 9.09399C42.9078 9.09399 42.6452 9.12979 42.3827 9.20139L37.407 10.5617L22.2111 14.7082H39.4593H46.9766L46.0459 11.2955C45.688 9.96506 44.4828 9.09399 43.1702 9.09399Z" fill="#456CF4"/>
<path d="M50.085 16.7963H49.4049H48.4801H47.5554H40.4974H14.5624H11.1617H8.29796H7.76697H5.98905C5.0464 16.7963 4.20517 17.2318 3.65628 17.9179C3.4057 18.2341 3.21478 18.598 3.10739 18.9978C3.04176 19.2484 3 19.5109 3 19.7794V20.1373V23.538V53.0169C3 54.6636 4.33642 56 5.98309 56H50.0791C51.7258 56 53.0622 54.6636 53.0622 53.0169V44.6941H35.3605C32.5624 44.6941 30.2893 42.421 30.2893 39.6228V36.8903V35.9656V35.0408V32.9885C30.2893 31.6162 30.8381 30.3694 31.7271 29.4565C32.5147 28.6451 33.5707 28.0962 34.752 27.959C34.9489 27.9352 35.1517 27.9232 35.3546 27.9232H50.5802H51.505H52.4298H53.0622V19.7794C53.0681 18.1327 51.7317 16.7963 50.085 16.7963Z" fill="#456CF4"/>
<path d="M55.1563 30.775C54.858 30.5006 54.506 30.2918 54.1122 30.1546C53.8079 30.0532 53.4858 29.9935 53.1457 29.9935H53.0681H53.0085H52.0837H48.7486H35.3605C33.7138 29.9935 32.3774 31.3299 32.3774 32.9766V34.4621V35.3869V36.3116V39.6169C32.3774 41.2636 33.7138 42.6 35.3605 42.6H53.0681H53.1457C53.4858 42.6 53.8079 42.5403 54.1122 42.4389C54.506 42.3077 54.858 42.0929 55.1563 41.8184C55.7529 41.2755 56.1288 40.488 56.1288 39.617V32.9766C56.1288 32.1055 55.7529 31.3179 55.1563 30.775ZM41.5892 36.8904C41.5892 37.7137 40.921 38.3819 40.0977 38.3819H39.1073C38.284 38.3819 37.6157 37.7137 37.6157 36.8904V35.9C37.6157 35.4227 37.8365 34.999 38.1885 34.7306C38.445 34.5337 38.7613 34.4084 39.1073 34.4084H39.3579H40.0977C40.921 34.4084 41.5892 35.0766 41.5892 35.9V36.8904Z" fill="#456CF4"/>
</svg>
