<svg width="40" height="40" viewBox="0 0 40 40" fill="none" xmlns="http://www.w3.org/2000/svg">
<g clip-path="url(#clip0)">
<path d="M31.6783 13.1027C31.8077 13.2327 31.9769 13.2974 32.1461 13.2974C32.3153 13.2974 32.4848 13.2324 32.6143 13.1027L37.2252 8.47075C38.5461 7.14354 38.5461 4.98381 37.2252 3.6566C35.904 2.32909 33.7538 2.3297 32.4329 3.6566L32.1461 3.94408L31.8599 3.6566C30.5381 2.32939 28.3888 2.32939 27.0676 3.6566C26.4275 4.29961 26.0748 5.1544 26.0748 6.06352C26.0748 6.97264 26.4275 7.82774 27.0676 8.47044L31.6783 13.1027ZM28.0036 4.59685C28.4064 4.19218 28.935 3.99046 29.4636 3.99046C29.9922 3.99046 30.5214 4.19249 30.924 4.59685L31.6783 5.3549C31.8025 5.47942 31.9708 5.54961 32.1461 5.54961C32.3217 5.54961 32.49 5.47942 32.6143 5.3549L33.3689 4.59685C34.1745 3.78722 35.4842 3.78813 36.2892 4.59685C37.0943 5.40556 37.0943 6.72179 36.2892 7.5305L32.1461 11.6922L28.0036 7.5305C27.6135 7.13866 27.3985 6.61742 27.3985 6.06383C27.3988 5.50963 27.6135 4.98839 28.0036 4.59685Z" fill="#EBD300"/>
<path d="M38.3526 38.5666C32.6951 39.1971 28.2084 36.6806 28.1634 36.6553C28.0112 36.568 27.8307 36.5445 27.6615 36.5912C27.5901 36.6104 20.4738 38.5266 14.7421 37.2485C11.1689 36.4505 7.79867 33.9221 5.33765 32.0761C5.00712 31.8283 4.69391 31.593 4.39984 31.3773C3.99823 31.0822 3.35965 30.8368 2.79673 30.6201C2.54397 30.5231 2.19765 30.3897 2.12322 30.343C2.05881 30.2924 2.02357 30.2179 2.02357 30.1328V28.5916C2.05547 27.3721 7.14521 8.60779 7.93446 6.22071C7.95391 6.19263 8.02986 6.13739 8.08575 6.11084L18.1583 1.48926L21.4146 5.74799C21.5754 5.96863 21.5602 6.27716 21.3791 6.48072L18.1613 10.1044C17.9508 10.3418 17.5963 10.3677 17.3763 10.1831L16.0752 8.97797C15.9227 8.83698 15.7058 8.79029 15.5025 8.82782C15.2987 8.86444 15.1164 9.01032 15.0222 9.19587C14.9135 9.41101 13.9283 9.67469 12.9233 9.68232L12.5959 9.64905C12.3334 9.61762 12.0788 9.75525 11.9506 9.98749C11.8218 10.2197 11.8437 10.5066 12.0053 10.7172C12.2848 11.08 12.5026 11.3715 12.6259 11.5387L13.27 22.5363C12.8708 24.0982 12.505 24.5419 12.4142 24.6307C12.1459 24.7159 11.9512 24.9677 11.9512 25.2649C11.9512 25.632 12.2477 25.9299 12.6132 25.9299C13.3638 25.9299 14.0018 24.939 14.514 23.0045C19.7784 19.0476 24.3727 22.782 24.733 23.0893C26.405 24.7751 26.5086 25.8948 26.512 25.9445C26.5199 26.3046 26.813 26.5945 27.1739 26.5945C27.5394 26.5945 27.8359 26.297 27.8359 25.9299C27.8359 25.777 27.7806 24.465 26.0675 22.5696C27.6831 20.5743 29.5226 19.4251 31.5486 19.1748C35.0416 18.7427 37.9777 21.1023 38.0072 21.1258C38.2909 21.3577 38.7071 21.315 38.938 21.0306C39.1689 20.7465 39.1273 20.3284 38.8447 20.0961C38.708 19.9841 35.4578 17.3575 31.4003 17.8534C29.0286 18.1424 26.8996 19.4309 25.0644 21.6861C23.5749 20.6686 19.3042 18.3658 14.528 21.3776L13.9356 11.2637C13.9295 11.1545 13.8961 11.0486 13.8393 10.9555C14.4317 10.885 15.1371 10.7297 15.6487 10.3915L16.5014 11.181C17.2952 11.8503 18.4578 11.767 19.1487 10.99L22.3664 7.36603C22.96 6.698 23.0096 5.68787 22.474 4.95118L18.8868 0.259709C18.6997 0.0146525 18.3685 -0.0686604 18.0869 0.0601237L7.54379 4.89777C7.43351 4.94629 6.87423 5.2182 6.69043 5.77362C6.31555 6.904 0.699951 27.0221 0.699951 28.5895V30.1331C0.699951 30.6284 0.921416 31.0864 1.30693 31.3901C1.49984 31.5418 1.78814 31.6565 2.32372 31.8622C2.76118 32.0306 3.35996 32.2604 3.61849 32.4506C3.90952 32.6642 4.21878 32.8964 4.54566 33.1418C7.10268 35.0601 10.6045 37.6871 14.4554 38.5468C19.9373 39.7705 26.3725 38.291 27.7518 37.9419C28.6729 38.4201 32.0522 40 36.4764 40C37.1292 40 37.8052 39.9658 38.4987 39.888C38.8621 39.8477 39.1236 39.5187 39.0835 39.1541C39.0428 38.7885 38.7144 38.5236 38.3526 38.5666Z" fill="#EBD300"/>
<path d="M35.1123 30.5105C35.0759 30.1779 34.7955 29.9191 34.4543 29.9191C34.0889 29.9191 33.7924 30.2169 33.7924 30.5841C33.7924 31.0281 34.1189 32.5317 38.3167 33.2342C38.3535 33.2403 38.3903 33.2434 38.4261 33.2434C38.7439 33.2434 39.0243 33.013 39.0783 32.688C39.1382 32.3257 38.8946 31.9833 38.5343 31.9226C35.5987 31.4312 35.1515 30.599 35.1123 30.5105Z" fill="#EBD300"/>
<path d="M22.4026 33.923C13.7339 35.7882 10.0243 29.83 9.8709 29.5758C9.68164 29.2618 9.27608 29.1607 8.96347 29.3493C8.64996 29.5382 8.54849 29.9466 8.73654 30.2615C8.78029 30.3344 9.83353 32.0712 12.0855 33.5507C13.6373 34.5697 16.0036 35.6079 19.204 35.6079C20.27 35.6079 21.4284 35.4928 22.6797 35.2237C23.0373 35.1468 23.2651 34.7931 23.1886 34.4342C23.1117 34.0753 22.7602 33.8455 22.4026 33.923Z" fill="#EBD300"/>
</g>
<defs>
<clipPath id="clip0">
<rect width="39.8187" height="40" fill="white"/>
</clipPath>
</defs>
</svg>
