<svg width="60" height="60" viewBox="0 0 60 60" fill="none" xmlns="http://www.w3.org/2000/svg">
<path d="M41.41 29.8313C39.1843 29.8313 38.213 32.3465 38.213 35.4953C38.1647 38.7856 39.2776 41.1625 41.41 41.1625C43.491 41.1625 44.5074 39.0301 44.5074 35.4953C44.5074 32.3015 43.684 29.8313 41.41 29.8313Z" fill="#456CF4"/>
<path d="M53.3395 2H6.67015C4.09063 2 2 4.09063 2 6.66693V53.3331C2 55.9094 4.09063 58 6.67015 58H53.3395C55.9158 58 58.0032 55.9094 58.0032 53.3331V6.67015C58.0032 4.09063 55.9158 2 53.3395 2ZM10.028 22.6136C10.028 16.9947 13.4663 12.7362 18.8408 12.7362C24.2668 12.7362 27.3159 16.7052 27.3159 22.0829C27.3159 28.6668 23.1508 32.1083 18.5996 32.1083C13.8072 32.1051 10.028 28.5221 10.028 22.6136ZM18.9856 45.2761L37.0486 12.7362H41.0208L22.9063 45.2761H18.9856ZM41.2621 45.1828C36.5147 45.1828 32.7419 41.5998 32.6937 35.6881C32.6937 30.0724 36.1288 25.8139 41.5033 25.8139C46.9293 25.8139 49.9816 29.7829 49.9816 35.1574C49.9816 41.7413 45.8164 45.1828 41.2621 45.1828Z" fill="#456CF4"/>
<path d="M18.6961 16.7532C16.5186 16.7532 15.4991 19.2684 15.4991 22.4204C15.4991 25.7107 16.6119 28.0844 18.7444 28.0844C20.8286 28.0844 21.8417 25.9552 21.8417 22.4204C21.8417 19.2233 20.9733 16.7532 18.6961 16.7532Z" fill="#456CF4"/>
</svg>
