<svg width="60" height="60" viewBox="0 0 60 60" fill="none" xmlns="http://www.w3.org/2000/svg">
<path d="M58 4H2V14.9565H58V4Z" fill="#456CF4"/>
<path d="M17.8261 18.6089H2V28.348H17.8261V18.6089Z" fill="#456CF4"/>
<path d="M17.8261 45.3914H2V55.1304H17.8261V45.3914Z" fill="#456CF4"/>
<path d="M17.8261 32H2V41.7391H17.8261V32Z" fill="#456CF4"/>
<path d="M38.5217 18.6089H21.4783V28.348H38.5217V18.6089Z" fill="#456CF4"/>
<path d="M38.5217 45.3914H21.4783V55.1304H38.5217V45.3914Z" fill="#456CF4"/>
<path d="M38.5217 32H21.4783V41.7391H38.5217V32Z" fill="#456CF4"/>
<path d="M58 18.6089H42.1739V28.348H58V18.6089Z" fill="#456CF4"/>
<path d="M58 45.3914H42.1739V55.1304H58V45.3914Z" fill="#456CF4"/>
<path d="M58 32H42.1739V41.7391H58V32Z" fill="#456CF4"/>
</svg>
