<svg width="60" height="60" viewBox="0 0 60 60" fill="none" xmlns="http://www.w3.org/2000/svg">
<path d="M20.0934 13.3956H49.2198V12.456C49.2198 10.8994 47.9577 9.63733 46.4011 9.63733H14.4561C12.8995 9.63733 11.6374 10.8994 11.6374 12.456V48.1593C11.6374 49.7159 12.8995 50.978 14.4561 50.978H15.3956V18.0934C15.3988 15.4999 17.5 13.3988 20.0934 13.3956Z" fill="#456CF4"/>
<path d="M54.8571 22.7913H17.2747V53.7968C17.2747 55.3534 18.5368 56.6154 20.0934 56.6154H52.0385C53.5951 56.6154 54.8571 55.3534 54.8571 53.7968V22.7913Z" fill="#456CF4"/>
<path d="M14.456 7.75824H43.5824V6.81868C43.5824 5.26208 42.3203 4 40.7637 4H8.81868C7.26208 4 6 5.26208 6 6.81868V42.522C6 44.0786 7.26208 45.3407 8.81868 45.3407H9.75824V12.456C9.76145 9.86262 11.8626 7.76145 14.456 7.75824Z" fill="#456CF4"/>
<path d="M54.8571 18.0933C54.8571 16.5367 53.5951 15.2747 52.0385 15.2747H20.0934C18.5368 15.2747 17.2747 16.5367 17.2747 18.0933V20.912H54.8571V18.0933ZM20.9577 18.4503C20.91 18.564 20.843 18.6691 20.7605 18.7604C20.4916 19.0292 20.0861 19.1077 19.7365 18.9577C19.6213 18.9122 19.5163 18.8453 19.4263 18.7604C19.3438 18.6691 19.2768 18.564 19.2291 18.4503C19.1291 18.2227 19.1291 17.964 19.2291 17.7364C19.2745 17.6213 19.3415 17.5162 19.4263 17.4263C19.803 17.0785 20.3838 17.0785 20.7605 17.4263C20.8453 17.5162 20.9123 17.6213 20.9577 17.7364C21.0582 17.964 21.0582 18.2227 20.9577 18.4503ZM23.7764 18.4503C23.7287 18.564 23.6617 18.6691 23.5791 18.7604C23.3103 19.0292 22.9047 19.1077 22.5552 18.9577C22.4414 18.9099 22.3363 18.8434 22.245 18.7604C22.1625 18.6691 22.0955 18.564 22.0478 18.4503C21.995 18.3388 21.9693 18.2167 21.9725 18.0933C21.9739 17.9704 21.9996 17.8493 22.0478 17.7364C22.0932 17.6213 22.1602 17.5162 22.245 17.4263C22.6217 17.0785 23.2025 17.0785 23.5791 17.4263C23.664 17.5162 23.731 17.6213 23.7764 17.7364C23.8769 17.964 23.8769 18.2227 23.7764 18.4503ZM26.3978 18.7604C26.129 19.0315 25.723 19.1127 25.3706 18.9664C25.0178 18.82 24.7889 18.475 24.7912 18.0933C24.788 17.9699 24.8137 17.8479 24.8664 17.7364C24.9119 17.6213 24.9788 17.5162 25.0637 17.4263C25.4404 17.0785 26.0212 17.0785 26.3978 17.4263C26.4827 17.5162 26.5497 17.6213 26.5951 17.7364C26.7451 18.086 26.6667 18.4916 26.3978 18.7604Z" fill="#456CF4"/>
</svg>
