<svg width="60" height="60" viewBox="0 0 60 60" fill="none" xmlns="http://www.w3.org/2000/svg">
<g clip-path="url(#clip0)">
<path d="M48.5436 26.4778H47.4479V17.5803C47.4479 8.09576 39.9212 0.172716 30.5138 0.00363433C30.2569 -0.00104868 29.743 -0.00104868 29.4862 0.00363433C20.0787 0.172593 12.5521 8.09563 12.5521 17.5802V17.7778C12.5521 19.772 14.1687 21.3886 16.1629 21.3886C18.1571 21.3886 19.7736 19.772 19.7736 17.7778V17.5802C19.7736 11.9304 24.3651 7.25885 29.9999 7.25885C35.6346 7.25885 40.2262 11.9304 40.2262 17.5802V26.4777H11.4565C9.76789 26.4777 8.39059 28.2201 8.39059 30.3722V56.092C8.39059 58.2412 9.76789 60.0001 11.4565 60.0001H48.5436C50.2323 60.0001 51.6095 58.2413 51.6095 56.092V30.3721C51.6096 28.22 50.2323 26.4778 48.5436 26.4778ZM33.4745 43.2059V50.9775C33.4745 51.8675 32.7295 52.6205 31.8388 52.6205H28.1613C27.2705 52.6205 26.5256 51.8675 26.5256 50.9775V43.2059C25.6618 42.3556 25.1589 41.1799 25.1589 39.8794C25.1589 37.4147 27.064 35.2968 29.4863 35.1992C29.743 35.1887 30.2572 35.1887 30.5138 35.1992C32.9361 35.2968 34.8412 37.4147 34.8412 39.8794C34.8412 41.1796 34.3384 42.3555 33.4745 43.2059Z" fill="#456CF4"/>
</g>
<defs>
<clipPath id="clip0">
<rect width="60" height="60" fill="white"/>
</clipPath>
</defs>
</svg>
