<svg width="60" height="60" viewBox="0 0 60 60" fill="none" xmlns="http://www.w3.org/2000/svg">
<path d="M30 1C13.9721 1 1 13.9704 1 30C1 46.0279 13.9704 59 30 59C46.0279 59 59 46.0296 59 30C59 13.9721 46.0296 1 30 1ZM40.793 32.1244H35.3649V43.6437C35.3649 44.7114 34.4993 45.5771 33.4315 45.5771H26.5685C25.5008 45.5771 24.6351 44.7115 24.6351 43.6437V32.1244H19.2069C17.5967 32.1244 16.696 30.2666 17.6826 29.0018L28.4756 15.167C29.25 14.1745 30.7517 14.1766 31.5243 15.167L42.3173 29.0018C43.3042 30.2668 42.4032 32.1244 40.793 32.1244Z" fill="#456CF4"/>
</svg>
